<?xml version="1.0" encoding="utf-8"?>
<!-- Generator: Adobe Illustrator 25.3.1, SVG Export Plug-In . SVG Version: 6.00 Build 0)  -->
<svg version="1.1" id="Aavegotchi_logo" xmlns="http://www.w3.org/2000/svg" xmlns:xlink="http://www.w3.org/1999/xlink" x="0px"
	 y="0px" viewBox="0 0 1920 1080" style="enable-background:new 0 0 1920 1080;" xml:space="preserve">
<style type="text/css">
	.st0{fill:#969696;}
	.st1{fill:#AFAFAF;}
	.st2{fill:#5A5A5A;}
	.st3{fill:#6E6E6E;}
	.st4{fill:#696969;}
	.st5{fill:#787878;}
	.st6{fill:#C8C8C8;}
	.st7{fill:#FFFFFF;}
	.st8{fill:#9B9B9B;}
	.st9{fill:#464646;}
</style>
<g>
	<g>
		<path class="st0" d="M1156.9,726.4c-133.76,0-267.64,0-401.4,0c0,3.81,0,11.49,0,15.3c3.76,0,11.34,0,15.1,0
			c0,3.76,0,11.34,0,15.1c3.76,0,11.34,0,15.1,0c0,3.76,0,11.34,0,15.1c116.08,0,232.32,0,348.4,0c0-3.76,0-11.34,0-15.1
			c3.77,0,11.34,0,15.1,0c0-3.76,0-11.34,0-15.1c3.81,0,11.49,0,15.3,0c0-3.81,0-11.49,0-15.3H1156.9z"/>
		<path class="st1" d="M1096.2,787.1c-93.3,0-186.8,0-280.1,0c0,3.76,0,11.34,0,15.1c9.49,0,20.81,0,30.3,0c0,3.76,0,11.34,0,15.1
			c14.74,0,30.66,0,45.4,0c0,3.81,0,11.49,0,15.3c45.3,0,91,0,136.3,0c0-3.81,0-11.49,0-15.3c14.74,0,30.66,0,45.4,0
			c0-3.76,0-11.34,0-15.1c9.52,0,20.88,0,30.4,0c0-3.76,0-11.34,0-15.1H1096.2z"/>
		<path class="st2" d="M1217.5,469.1h-7.6c0-3.81,0-11.49,0-15.3c-3.77,0-11.34,0-15.1,0c0-9.46,0-20.74,0-30.2
			c-3.79,0-11.41,0-15.2,0c0-9.49,0-20.81,0-30.3c-3.76,0-11.34,0-15.1,0c0-3.76,0-11.34,0-15.1c-3.81,0-11.49,0-15.3,0
			c0-3.81,0-11.49,0-15.3c-3.76,0-11.34,0-15.1,0c0-3.76,0-11.34,0-15.1c-3.76,0-11.34,0-15.1,0c0-3.76,0-11.34,0-15.1
			c-9.46,0-20.74,0-30.2,0c0-3.76,0-11.34,0-15.1c-9.53,0-20.88,0-30.4,0c0-3.79,0-11.41,0-15.2c-9.49,0-20.81,0-30.3,0
			c0-3.79,0-11.41,0-15.2c-45.3,0-91,0-136.3,0c0,3.79,0,11.41,0,15.2c-9.49,0-20.81,0-30.3,0c0,3.78,0,11.41,0,15.2
			c-9.49,0-20.81,0-30.3,0c0,3.76,0,11.34,0,15.1c-9.49,0-20.81,0-30.3,0c0,3.76,0,11.34,0,15.1c-3.78,0-11.41,0-15.2,0
			c0,3.76,0,11.34,0,15.1c-3.76,0-11.34,0-15.1,0c0,3.81,0,11.49,0,15.3c-3.76,0-11.34,0-15.1,0c0,3.76,0,11.34,0,15.1
			c-3.76,0-11.34,0-15.1,0c0,9.49,0,20.81,0,30.3c-3.79,0-11.41,0-15.2,0c0,9.46,0,20.74,0,30.2c-3.79,0-11.41,0-15.2,0
			c0,3.81,0,11.49,0,15.3c-3.76,0-11.34,0-15.1,0c0,9.46,0,20.74,0,30.2c176.67,0,353.43,0,530.1,0c0-9.46,0-20.74,0-30.2H1217.5z"
			/>
		<path class="st3" d="M1217.5,605.3c-174.17,0-348.43,0-522.6,0c0,9.49,0,20.81,0,30.3c3.76,0,11.34,0,15.1,0
			c0,3.79,0,11.41,0,15.2c166.6,0,333.3,0,499.9,0c0-3.79,0-11.41,0-15.2c3.76,0,11.34,0,15.1,0c0-9.49,0-20.81,0-30.3H1217.5z"/>
		<path class="st4" d="M1217.5,514.4c-174.17,0-348.43,0-522.6,0c0,25.03,0,50.77,0,75.8c176.67,0,353.43,0,530.1,0
			c0-25.03,0-50.77,0-75.8H1217.5z"/>
		<path class="st5" d="M1187.1,665.9c-153.93,0-307.97,0-461.9,0c0,9.49,0,20.81,0,30.3c3.79,0,11.41,0,15.2,0
			c0,3.76,0,11.34,0,15.1c146.36,0,292.84,0,439.2,0c0-3.76,0-11.34,0-15.1c3.78,0,11.41,0,15.2,0c0-9.49,0-20.81,0-30.3H1187.1z"/>
	</g>
	<g>
		<g>
			<g>
				<g>
					<polygon points="1053.8,297.4 1053.8,284.9 1041.2,284.9 1041.2,272.4 1016.2,272.4 1016.2,259.9 991.2,259.9 991.2,247.4 
						928.8,247.4 928.8,259.9 903.8,259.9 903.8,272.4 878.8,272.4 878.8,284.9 866.2,284.9 866.2,297.4 853.8,297.4 853.8,553.7 
						878.8,553.7 878.8,541.2 910,541.2 910,553.7 941.2,553.7 941.2,541.2 978.8,541.2 978.8,553.7 1010,553.7 1010,541.2 
						1041.2,541.2 1041.2,553.7 1066.2,553.7 1066.2,297.4 					"/>
					<polygon class="st6" points="1041.2,297.4 1041.2,284.9 1016.2,284.9 1016.2,272.4 991.2,272.4 991.2,259.9 928.8,259.9 
						928.8,272.4 903.8,272.4 903.8,284.9 878.8,284.9 878.8,297.4 866.2,297.4 866.2,541.2 878.8,541.2 878.8,528.7 910,528.7 
						910,541.2 941.2,541.2 941.2,528.7 978.8,528.7 978.8,541.2 1010,541.2 1010,528.7 1041.2,528.7 1041.2,541.2 1053.8,541.2 
						1053.8,297.4 					"/>
					<path class="st7" d="M872.5,516.2H885V510h12.5v6.2H910v12.5h31.2v-12.5h12.5V510h12.5v6.2h12.5v12.5h31.2v-12.5h12.5V510h12.5
						v6.2h6.2V297.4h-25v-12.5h-25v-12.5H960v-6.2h-31.2v12.5h-25v12.5h-25v12.5h-6.2v212.5L872.5,516.2L872.5,516.2z"/>
				</g>
				<path class="st8" d="M891.2,409.9v12.5h12.5v-12.5H891.2z M1016.2,409.9v12.5h12.5v-12.5H1016.2z"/>
				<path d="M903.8,384.9v12.5h25v-12.5h12.5v-25h-12.5v-12.5h-25v12.5h-12.5v25H903.8z M978.8,359.9v25h12.5v12.5h25v-12.5h12.5
					v-25h-12.5v-12.5h-25v12.5H978.8z"/>
				<path d="M941.2,409.9h-12.5v12.5h12.5V409.9z"/>
				<path d="M941.2,422.4v12.5h37.5v-12.5H941.2z"/>
				<path d="M978.8,409.9v12.5h12.5v-12.5H978.8z"/>
				<g>
					<polygon points="978.8,303.7 978.8,297.4 972.5,297.4 972.5,291.2 966.2,291.2 966.2,284.9 953.8,284.9 953.8,291.2 
						947.5,291.2 947.5,297.4 941.2,297.4 941.2,303.7 935,303.7 935,328.7 941.2,328.7 941.2,334.9 947.5,334.9 947.5,341.2 
						953.8,341.2 953.8,347.4 966.2,347.4 966.2,341.2 972.5,341.2 972.5,334.9 978.8,334.9 978.8,328.7 985,328.7 985,303.7 					
						"/>
					<g>
						<g>
							<path class="st8" d="M941.2,316.2v12.5h6.2v6.2h6.2v6.2h6.2v-25h-18.6L941.2,316.2L941.2,316.2z"/>
							<path class="st8" d="M972.5,303.7v-6.2h-6.2v-6.2H960v25h18.8v-12.5h-6.3V303.7z"/>
						</g>
						<path class="st9" d="M960,316.2v25h6.2V335h6.2v-6.2h6.2v-12.5H960V316.2z"/>
						<path class="st6" d="M953.8,291.2v6.2h-6.2v6.2h-6.2v12.5H960v-25h-6.2V291.2z"/>
					</g>
				</g>
			</g>
			<g>
				<polygon points="847.5,416.2 847.5,409.9 835,409.9 835,403.7 810,403.7 810,409.9 803.8,409.9 803.8,434.9 810,434.9 
					810,441.2 822.5,441.2 822.5,447.4 835,447.4 835,453.7 841.2,453.7 841.2,459.9 847.5,459.9 847.5,466.2 853.8,466.2 
					853.8,416.2 				"/>
				<polygon class="st6" points="847.5,422.4 847.5,416.2 835,416.2 835,409.9 810,409.9 810,434.9 822.5,434.9 822.5,441.2 
					835,441.2 835,447.4 841.2,447.4 841.2,453.7 847.5,453.7 847.5,459.9 853.8,459.9 853.8,422.4 				"/>
				<path class="st7" d="M810,409.9v18.8h12.5v6.2H835v6.2h6.2v6.2h6.2v6.2h6.2v-31.2h-6.2v-6.2H835v-6.2H810z"/>
			</g>
		</g>
		<g>
			<g>
				<path d="M1397.5,516.2h-6.3c0-7.83,0-17.17,0-25c-3.09,0-9.31,0-12.4,0c0-3.12,0-9.39,0-12.5c-3.14,0-9.46,0-12.6,0
					c0-3.12,0-9.39,0-12.5c-7.83,0-17.17,0-25,0c0-3.12,0-9.39,0-12.5c-254.12,0-508.28,0-762.4,0c0,3.11,0,9.39,0,12.5
					c-7.83,0-17.17,0-25,0c0,3.11,0,9.39,0,12.5c-3.14,0-9.46,0-12.6,0c0,3.11,0,9.39,0,12.5c-3.09,0-9.31,0-12.4,0
					c0,7.83,0,17.17,0,25c-3.14,0-9.46,0-12.6,0c0,29.03,0,58.47,0,87.5c3.14,0,9.46,0,12.6,0c0,7.83,0,17.17,0,25
					c3.09,0,9.31,0,12.4,0c0,3.11,0,9.39,0,12.5c3.14,0,9.46,0,12.6,0c0,3.11,0,9.39,0,12.5c7.83,0,17.17,0,25,0
					c0,3.11,0,9.39,0,12.5c254.12,0,508.28,0,762.4,0c0-3.12,0-9.39,0-12.5c7.83,0,17.17,0,25,0c0-3.12,0-9.39,0-12.5
					c3.14,0,9.46,0,12.6,0c0-3.12,0-9.39,0-12.5c3.09,0,9.31,0,12.4,0c0-7.83,0-17.17,0-25c3.14,0,9.46,0,12.6,0
					c0-29.03,0-58.47,0-87.5H1397.5z"/>
				<g>
					<g>
						<path class="st7" d="M1385,516.2h-6.2c0-7.83,0-17.17,0-25c-3.14,0-9.46,0-12.6,0c0-3.12,0-9.39,0-12.5c-7.83,0-17.17,0-25,0
							c0-3.12,0-9.39,0-12.5c-254.12,0-508.28,0-762.4,0c0,3.11,0,9.39,0,12.5c-7.83,0-17.17,0-25,0c0,3.11,0,9.39,0,12.5
							c-3.14,0-9.46,0-12.6,0c0,7.83,0,17.17,0,25c-3.09,0-9.31,0-12.4,0c0,29.03,0,58.47,0,87.5c3.09,0,9.31,0,12.4,0
							c0,7.83,0,17.17,0,25c3.14,0,9.46,0,12.6,0c0,3.11,0,9.39,0,12.5c7.83,0,17.17,0,25,0c0,3.11,0,9.39,0,12.5
							c254.12,0,508.28,0,762.4,0c0-3.12,0-9.39,0-12.5c7.83,0,17.17,0,25,0c0-3.12,0-9.39,0-12.5c3.14,0,9.46,0,12.6,0
							c0-7.83,0-17.17,0-25c3.09,0,9.31,0,12.4,0c0-29.03,0-58.47,0-87.5H1385z"/>
					</g>
					<g>
						<g>
							<path d="M679.2,516.7h12.4v75.1h-12.4v-37.5h-37.6v37.5h-12.4v-75.1h12.4v25h37.6V516.7z M679.2,504.3v12.4h-37.6v-12.4
								L679.2,504.3L679.2,504.3z"/>
							<path d="M704.1,566.8h12.4v12.6h-12.4V566.8z M716.6,529.3h37.6v12.4h-37.6V529.3z M754.2,541.8h12.4v50h-50v-12.4h37.6
								v-12.6h-37.6v-12.4h37.6V541.8z"/>
							<path d="M779,529.3h12.4v37.5H779V529.3z M791.5,566.8h12.6v12.6h-12.6V566.8z M804.1,591.8v-12.4h12.4v12.4H804.1z
								 M816.5,579.4v-12.6h12.6v12.6H816.5z M829.1,529.3h12.4v37.5h-12.4V529.3z"/>
							<path d="M916.4,541.8v25h-50v12.6H854v-37.6h12.4v12.6H904v-12.6H916.4z M904,541.8h-37.6v-12.4H904V541.8z M866.4,591.8
								v-12.4h50v12.4H866.4z"/>
							<path d="M928.9,541.8h12.4v37.6h-12.4V541.8z M941.2,529.3h50v74.9h-12.4v-12.4h-37.6v-12.4h37.6v-37.6h-37.6V529.3z
								 M941.2,616.8v-12.6h37.6v12.6H941.2z"/>
							<path d="M1003.8,541.8h12.4v37.6h-12.4V541.8z M1053.8,529.3v12.4h-37.6v-12.4C1016.1,529.3,1053.8,529.3,1053.8,529.3z
								 M1016.1,591.8v-12.4h37.6v12.4H1016.1z M1053.8,541.8h12.4v37.6h-12.4V541.8z"/>
							<path d="M1116.1,541.8h-25v37.6h-12.4v-62.6h12.4v12.6h25V541.8z M1116.1,591.8h-25v-12.4h25V591.8z"/>
							<path d="M1128.5,541.8h12.4v37.6h-12.4V541.8z M1191,529.3v12.4h-50v-12.4H1191z M1191,591.8h-50v-12.4h50V591.8z"/>
							<path d="M1215.9,541.8v50h-12.4v-87.5h12.4v25h37.6v12.4h-37.6V541.8z M1253.5,541.8h12.4v50h-12.4V541.8z"/>
							<path d="M1278.4,504.3h12.4v12.4h-12.4V504.3z M1278.4,591.8v-62.5h12.4v62.5H1278.4z"/>
						</g>
					</g>
				</g>
			</g>
			<g>
				<polygon points="1110,447.4 1110,441.2 1097.5,441.2 1097.5,434.9 1085,434.9 1085,428.7 1078.8,428.7 1078.8,422.4 
					1072.5,422.4 1072.5,416.2 1066.2,416.2 1066.2,466.2 1072.5,466.2 1072.5,472.4 1085,472.4 1085,478.7 1110,478.7 1110,472.4 
					1116.2,472.4 1116.2,447.4 				"/>
				<polygon class="st6" points="1097.5,447.4 1097.5,441.2 1085,441.2 1085,434.9 1078.8,434.9 1078.8,428.7 1072.5,428.7 
					1072.5,422.4 1066.2,422.4 1066.2,459.9 1072.5,459.9 1072.5,466.2 1085,466.2 1085,472.4 1110,472.4 1110,447.4 				"/>
				<path class="st7" d="M1097.5,447.4v-6.2H1085V435h-6.2v-6.2h-6.2v-6.2h-6.2v31.2h6.2v6.2h12.5v6.2h25v-18.8L1097.5,447.4
					L1097.5,447.4z"/>
			</g>
		</g>
	</g>
</g>
</svg>
