<svg xmlns="http://www.w3.org/2000/svg" viewBox="0 0 2000 2000"><path d="M539.2 1511.8h14.4v84.7h-14.4v-43.1h-43.1v43.1h-14.4v-84.7h14.4v28.7h43.1v-28.7zm0-14.4v14.4h-43.1v-14.4h43.1zm28.7 70.3h14.4v14.4h-14.4v-14.4zm14.4-41.6h43.1v14.4h-43.1v-14.4zm41.6 12.9h14.4v57.4h-57.4V1582H624v-14.4h-43.1v-14.4H624V1539h-.1zm28.7-12.9H667v43.1h-14.4v-43.1zm14.4 41.6h14.4v14.4H667v-14.4zm14.3 28.8v-14.4h14.4v14.4h-14.4zm14.4-14.4v-14.4H710v14.4h-14.3zm14.3-56h14.4v43.1H710v-43.1zm99.1 12.9v28.7h-57.4v14.4h-14.4V1539h14.4v14.4h43.1V1539h14.3c0 1.5 0 0 0 0zm-14.4 0h-43.1v-14.4h43.1v14.4zm-43 57.5v-14.4h57.4v14.4h-57.4zm71.7-57.5h14.4v43.1h-14.4V1539zm13-12.9h57.4v84.7h-14.4v-14.4h-43.1V1582h43.1v-43h-43.1v-12.9h.1zm0 99.1v-14.4h43.1v14.4h-43.1zm71.7-86.2h14.4v43.1h-14.4V1539zm56-12.9v14.4H921v-14.4h43.1zm-41.6 70.4v-14.4h43.1v14.4h-43.1zm41.6-57.5h14.4v43.1h-14.4V1539zm71.8 0h-28.7v43.1h-14.4v-70.3h14.4v14.4h28.7v12.8zm0 57.5h-28.7v-14.4h28.7v14.4zm12.9-57.5h14.4v43.1h-14.4V1539zm71.8-12.9v14.4h-57.4v-14.4h57.4zm0 70.4h-57.4v-14.4h57.4v14.4zm27.3-57.5v57.4h-14.4v-99.1h14.4v28.7h43.1v14.4c-.1-1.4-43.1-1.4-43.1-1.4zm43 0h14.4v57.4h-14.4V1539zm28.7-41.6h14.4v14.4h-14.4v-14.4zm0 99.1v-70.3h14.4v70.3h-14.4zm41.7-84.7v70.3h43.1v14.4H1247v-99.1h57.4v14.4h-43.1 0zm43 0h14.4v70.3h-14.4v-70.3zm84.7 0h14.4v84.7H1389v-43.1h-43v43.1h-14.4v-84.7h14.4v28.7h43.1v-28.7h-.1zm0-14.4v14.4h-43v-14.4h43zm28.7 14.4h14.4v70.3h-14.4v-70.3zm56-14.4v14.4h-43.1v-14.4h43.1zm-41.6 99.1v-14.4h43.1v14.4h-43.1zm41.6-84.7h14.4v70.3h-14.4v-70.3zm100.5-203.9h28.7v-28.7h0 28.7v-28.7h28.7v-28.7h-28.7-172.2v-86.1h-201v-28.8h28.7v-28.7h28.7v-28.7h28.7v-57.4h28.7V848.6h28.7V403.5h-14.3-14.4v-28.7H626.8v28.7h-28.7v445.1h28.7v28.7 114.8h28.7v28.7 28.7h28.7v28.7h28.7v28.7h28.7v28.8h-201v86.1H339.7v28.7h28.7v28.7h28.7v28.7h28.7 0v28.7h-28.7v28.7h28.7 0-28.7-28.7v28.7h-28.7v28.8h287.1V1394h28.7v-28.7h28.7 0 28.7 0 143.5v28.7H1000h143.6v-28.7h86.1 86.1 28.7v28.7h28.7v28.8h287.1V1394h-28.7v-28.7h-28.7v-28.7h-28.7v-28.7h0z" fill="#64438e"/><path d="M1301.5 461h-43.2-28.7H684v388h28.8v143.2h28.8v57.6h28.8v28.8H799v28.8h28.8v28.8h28.8v28.8h144 115.2 28.8v-29.4h28.8v-28.8h28.8V1078h28.8v-28.8h28.8v-57.6h28.8V848.4h28.8V532.2H1303v14.4h-14.4v-14.4h-28.8 0 57.6v-42.6h0V461h-15.9 0zm-43.1 14.3h14.4v14.4h-14.4v-14.4h0zm-244 660.4h-28.8v-14.4h28.8v14.4h0zm0-28.8h-72v-14.4h72 14.4 28.8v14.4h-28.8-14.4zm28.7-43h57.6v14.4h-72-14.4-115.1v-14.4H1000h28.8 14.3zm86.1-14.4h-100.8-28.4-144v-14.4h288v14.4h-14.8zm-14.4-272.7V820h-14.4v-57.6h14.4v14.4zm-28.7 14.3v14.4h-14.4v-28.8h14.4v14.4zm-186.6-14.3V820h-14.4v-57.6h14.4v14.4zm114.9-57.4h-28.8V705h28.8v14.4zm28.7-28.8h-86.3v-14.4h86.4v14.4h-.1zm-14.4-28.7h-57.5v-14.4h57.6v14.4h-.1zM913.9 805.5v-28.8h14.4v28.8h-14.4zm71.7 71.8v-14.4h28.8v28.8h-28.8v-14.4zm-43 43V906h28.8v28.8h-28.8v-14.5zm43 0V906h28.8v28.8h-28.8v-14.5zm43.1 0V906h28.8v28.8h-28.8v-14.5zm-129.2 43.1V949h28.8v28.8h-28.8v-14.4zm43.1 0V949h28.8v28.8h-28.8v-14.4zm43 0V949h28.8v28.8h-28.8v-14.4zm43.1 0V949h28.8v28.8h-28.8v-14.4zm43.1 0V949h28.8v28.8h-28.8v-14.4zm-215.4 43.1v-14.4h28.8v28.8h-28.8v-14.4zm43.1 0v-14.4h28.8v28.8h-28.8v-14.4zm43.1 0v-14.4h28.8v28.8h-28.8v-14.4zm43 0v-14.4h28.8v28.8h-28.8v-14.4zm43.1 0v-14.4h28.8v28.8h-28.8v-14.4zm43.1 0v-14.4h28.8v28.8h-28.8v-14.4zm43 0v-14.4h28.8v28.8h-28.8v-14.4zM1244 475.3v14.4h-14.4v-14.4h14.4zm-28.7 0v14.4H1201v-14.4h14.3zm-28.7 0v14.4h-14.4v-14.4h14.4zm-28.7 0v14.4h-14.4v-14.4h14.4zm-28.7 0v14.4h-14.4v-14.4h14.4zm-28.7 0v14.4h-14.4v-14.4h14.4zm-28.7 0v14.4h-14.4v-14.4h14.4zm-28.7 0v14.4h-14.4v-14.4h14.4zm-100.5 0v14.4h-14.4v-14.4h14.4zm-28.7 0v14.4h-14.4v-14.4h14.4zm-28.7 0v14.4h-14.4v-14.4h14.4zm-28.8 0v14.4H842v-14.4h14.4zm-28.7 0v14.4h-14.4v-14.4h14.4zm-28.7 0v14.4h-14.4v-14.4H799zm-28.7 0v14.4H756v-14.4h14.3zm-28.7 0v14.4h-14.4v-14.4h14.4zm-43.1 0h14.4v14.4h-14.4v-14.4zm0 28.7h14.4v14.4h-14.4V504zm0 28.7h14.4v14.4h-14.4v-14.4zm0 28.7h14.4v14.4h-14.4v-14.4zm0 28.8h14.4v14.4h-14.4v-14.4zm0 28.7h14.4v14.4h-14.4v-14.4zm0 28.7h14.4V662h-14.4v-14.4zm0 28.7h14.4v14.4h-14.4v-14.4zm0 28.7h14.4v14.4h-14.4V705zm0 28.7h14.4v14.4h-14.4v-14.4zm0 28.7h14.4v14.4h-14.4v-14.4zm0 28.7h14.4v14.4h-14.4v-14.4zm0 43.1v-14.4h14.4v14.4h-14.4zm28.8 14.4h14.4V863h-14.4v-14.4zm0 28.7h14.4v14.4h-14.4v-14.4zm0 28.7h14.4v14.4h-14.4V906zm0 28.7h14.4V949h-14.4v-14.3zm0 43v-14.4h14.4v14.4h-14.4zm28.7 14.4h14.4v-57.5h0v57.6h0v14.4H756v-14.5zm0 43.1v-14.4h14.4v14.4H756zm28.7 28.7v-14.4H799v-57.6h0v57.6h0v14.4h-14.3zm28.7 28.7v-14.4h14.4v-28.8h0v28.8h0v14.4h-14.4zm28.7 28.7v-14.4h14.4v-28.8h0v28.8h0v14.4h-14.4zm28.7 28.7v-14.4h14.4v-28.8h0v43.2h-14.4 0zm28.7 0v-14.4h14.4v14.4h-14.4zm28.7 0v-14.4h14.4v14.4h-14.4zm28.7 0v-14.4h14.4v14.4h-14.4zm71.8 0v-14.4h14.4v14.4h-14.4zm28.7 0v-14.4h14.4v14.4h-14.4zm28.7 0v-14.4h14.4v14.4h-14.4zm43.1 0h-14.4 0v-14.4h14.4v14.4zm28.7-28.7h-14.4v-14.4h14.4v14.4zm28.7-28.7h-14.4v-14.4h14.4v14.4zm28.7-28.7H1201v-14.4h14.4v14.4h-.1zm28.7-28.7h-14.4v-14.4h14.4v14.4zm0-28.7h-14.4v-14.4h14.4v14.4zm28.7-28.8h-14.4v-14.4h14.4v14.4zm0-28.7h-14.4v-14.4h14.4V949zm0-28.7h-14.4V906h14.4v14.3zm0-28.7h-14.4v-14.4h14.4v14.4zm0-28.7h-14.4v-14.4h14.4v14.4zm28.8-28.7h-14.4v-14.4h14.4v14.4zm0-28.7h-14.4v-14.4h14.4v14.4zm0-28.7h-14.4v-14.4h14.4v14.4zm0-28.7h-14.4v-14.4h14.4v14.4zm0-28.7h-14.4V705h14.4v14.4zm0-28.8h-14.4v-14.4h14.4v14.4zm0-28.7h-14.4v-14.4h14.4v14.4zm0-28.7h-14.4v-14.4h14.4v14.4zm0-28.7h-14.4v-14.4h14.4v14.4zm0-43.1v14.4h-14.4v-14.4h14.4zm0-43h-14.4V504h14.4v14.4zm0-28.7h-14.4v-14.4h14.4v14.4z" fill="#eccdff"/><g fill="#c260ff"><path d="M971.3 906h-28.7v14.3h28.7V906zm57.4 14.3h28.7V906h-28.7v14.3zm258.4-244h14.4v14.4h-14.4zm0 28.7h14.4v14.4h-14.4zm0-57.4h14.4V662h-14.4zm0-28.7h14.4v14.4h-14.4zm0-28.7h14.4v14.4h-14.4zm0-28.8h14.4v14.4h-14.4zm0-28.7h14.4v14.4h-14.4zM698.5 705h14.4v14.4h-14.4zm373.3 244v14.4h28.7V949h-28.7zm43 57.5h28.8v-14.4h-28.8v14.4zm-14.3-14.4h-28.7v14.4h28.7v-14.4zm100.5 57.4h14.4v14.4H1201zm28.7-57.4h14.4v14.4h-14.4zm0 28.7h14.4v14.4h-14.4zM971.3 949h-28.7v14.4h28.7V949zm-71.8 14.4h28.7V949h-28.7v14.4zm71.8 28.7h-28.7v14.4h28.7v-14.4zm-71.8 14.4h28.7v-14.4h-28.7v14.4zm-14.3 0v-14.4h-28.8v14.4h28.8zm43 129.2h14.4v14.4h-14.4zm100.5-172.3h28.7V949h-28.7v14.4zm0 43.1h28.7v-14.4h-28.7v14.4zm-129.2 129.2h14.4v14.4h-14.4zm-201-459.4h14.4v14.4h-14.4zm0-28.7h14.4V662h-14.4zm0-28.7h14.4v14.4h-14.4zm0-28.7h14.4v14.4h-14.4zm0-28.8h14.4v14.4h-14.4zm0-28.7h14.4v14.4h-14.4zm330.2 603h14.4v14.4h-14.4zm28.7 0h14.4v14.4h-14.4zm114.9-57.5h14.4v14.4h-14.4zm-28.7 28.7h14.4v14.4h-14.4zm-28.8 28.8h14.4v14.4h-14.4zm-28.7 0h14.4v14.4h-14.4zm-129.2 0h14.4v14.4h-14.4zm57.5-258.4v-14.4h-28.8v14.4h28.8zm-28.8 43h28.8V906h-28.8v14.3zm0 43.1h28.8V949h-28.8v14.4zm0 43.1h28.8v-14.4h-28.8v14.4zm158 157.9v28.7h28.7v-28.7h-28.7z"/><path d="M1172.3 1135.7v28.7h28.7v-28.7h-28.7z"/><path d="M1201 1106.9v28.8h28.7v-28.8H1201z"/><path d="M1229.7 1078.2v28.7h28.7v-28.7h-28.7z"/><path d="M1258.4 1049.5v28.7h28.7v-28.7h-28.7z"/><path d="M1287.1 992.1v57.4h28.7v-57.4h-28.7z"/><path d="M1315.8 848.6v143.5h28.7V848.6h-28.7zm-201 344.5h-57.4-14.3-14.4-14.3-129.2v28.7H1000h57.4 86.2v-28.7h-28.8zm143.6-258.4h14.4v14.4h-14.4zm0 28.7h14.4v14.4h-14.4zm0-86.1h14.4v14.4h-14.4zm0 28.7h14.4v14.4h-14.4zm0-57.4h14.4V863h-14.4zm28.7-114.9h14.4v14.4h-14.4z"/><path d="M1287.1 819.8h14.4v14.4h-14.4zm0-28.7h14.4v14.4h-14.4zm0-28.7h14.4v14.4h-14.4zm0-258.4h14.4v14.4h-14.4zm-57.4-28.7h14.4v14.4h-14.4zm57.4 0h14.4v14.4h-14.4zm-28.7 0h14.4v14.4h-14.4zm100.5-71.8H626.8v445.1h28.7V432.3h689v416.3h28.7V403.5h-14.3 0zM698.5 504h14.4v14.4h-14.4zm229.7-28.7h14.4v14.4h-14.4zm-28.7 0h14.4v14.4h-14.4zm-28.7 0h14.4v14.4h-14.4zm-28.7 0h14.4v14.4h-14.4zm-28.7 0h14.4v14.4h-14.4zm-28.7 0h14.4v14.4h-14.4zm-28.7 0h14.4v14.4H756z"/><path d="M727.3 475.3h14.4v14.4h-14.4zm-28.8 0h14.4v14.4h-14.4zm502.5 0h14.4v14.4H1201zm-28.7 0h14.4v14.4h-14.4zm-28.7 0h14.4v14.4h-14.4zm-28.8 0h14.4v14.4h-14.4zm-28.7 0h14.4v14.4h-14.4zm-28.7 0h14.4v14.4h-14.4zm-28.7 0h14.4v14.4h-14.4zm-373.2 402v114.8h28.7V848.6h-28.7v28.7z"/><path d="M684.2 1020.8v28.7h28.7v-57.4h-28.7v28.7z"/><path d="M712.9 1078.2h28.7v-28.7h-28.7v28.7z"/><path d="M741.6 1106.9h28.7v-28.7h-28.7v28.7z"/><path d="M770.3 1135.7H799v-28.8h-28.7v28.8z"/><path d="M799 1164.4h28.7v-28.7H799v28.7z"/><path d="M827.7 1193.1h28.7v28.7h28.8v-28.7h-28.8v-28.7h-28.7v28.7zm-43-143.6h14.4v14.4h-14.4zm28.7 28.7h14.4v14.4h-14.4zm28.7 28.7h14.4v14.4h-14.4zm28.7 28.8h14.4v14.4h-14.4zM756 992.1h14.4v14.4H756zm0 28.7h14.4v14.4H756zm-28.7-172.2h14.4V863h-14.4zm0 28.7h14.4v14.4h-14.4zm0 28.7h14.4v14.4h-14.4zm0 28.7h14.4v14.4h-14.4zm0 28.7h14.4v14.4h-14.4zm-28.8-229.7h14.4v14.4h-14.4zm0 86.1h14.4v14.4h-14.4zm0-28.7h14.4v14.4h-14.4zm0-28.7h14.4v14.4h-14.4z"/></g><g fill="#a00ae6"><path d="M1000 647.6h-28.7v14.3h57.4v-14.3H1000zm14.4 57.4h-28.8v14.4h28.8V705zm-86.2 86.1v-14.3h-14.3v28.7h14.3v-14.4zm-28.7 14.4v-43.1h-14.3v57.4h14.3v-14.3zm186.6-14.4v-14.3h-14.3v28.7h14.3v-14.4zm28.7 14.4v-43.1h-14.3v57.4h14.3v-14.3zM971.3 934.7v-14.4h-28.7v14.4h28.7zm57.4-14.4v14.4h28.7v-14.4h-28.7zm301.5-488H655.5v416.3h28.7V461h631.6v387.6h28.7V432.3h-14.3z"/><path d="M1287.1 848.6v143.5h28.7V848.6h-28.7zm-186.6 129.1v-14.3h-28.7v14.3h28.7z"/><path d="M1114.8 1006.5v14.3h28.8v-14.3h-28.8zm143.6-14.4v57.4h28.7v-57.4h-28.7zm-157.9 28.7v-14.3h-28.7v14.3h28.7zm14.3 14.4H856.4v14.3h287.2v-14.3h-28.8z"/><path d="M1229.7 1049.5v28.7h28.7v-28.7h-28.7zm-157.9 14.4h-43.1-14.3-114.9v14.3h114.9 14.3 71.8v-14.3h-28.7zm100.5 43v28.8h28.7v-28.8h-28.7z"/><path d="M1201 1078.2v28.7h28.7v-28.7H1201zM971.3 977.7v-14.3h-28.7v14.3h28.7zm-71.8 0h28.7v-14.3h-28.7v14.3zm71.8 43.1v-14.3h-28.7v14.3h28.7zm-71.8-14.3v14.3h28.7v-14.3h-28.7zm-43.1 14.3h28.8v-14.3h-28.8v14.3zm201-57.4h-28.7v14.3h28.7v-14.3zm-28.7 43.1v14.3h28.7v-14.3h-28.7zm0 86.1h-86.1v14.3h114.8v-14.3h-28.7zm114.9 43.1v28.7h28.7v-28.7h-28.7zm-287.2 0h-28.7v28.7h28.7v-28.7z"/><path d="M827.7 1106.9H799v28.8h28.7v-28.8z"/><path d="M799 1078.2h-28.7v28.7H799v-28.7z"/><path d="M770.3 1049.5h-28.7v28.7h28.7v-28.7z"/><path d="M741.6 1020.8v-28.7h-28.7v57.4h28.7v-28.7zm244-330.2h57.5v-14.3h-86.2v14.3h28.7zm0 430.7v14.4h28.8v-14.4h-28.8zm129.2 43.1h-57.4-14.3-14.4-14.3-158v28.7H1000h143.6v-14.4h0v-14.3h-28.8zm-100.4-201h-28.8v14.3h28.8v-14.3zm0-43.1h-28.8v14.4h28.8v-14.4zm0-43h-28.8v14.3h28.8v-14.3zm-28.8 129.2v14.3h28.8v-14.3h-28.8z"/><path d="M712.9 963.4V848.6h-28.7v143.5h28.7v-28.7zm502.4-201h-57.5v14.4h-14.4v100.8h14.4V892h57.6v-14.4h14.4V776.8h-14.4v-14.4h-.1 0zm-14.3 43.1v57.6h-28.8v-72h28.8v14.4zm-344.6 57.4V762.1H842v-14.4h-57.4v14.4h-14.4v115.2H799v-43.2h28.8v43.2h28.8v-14.4h-.2zM799 791.1v-14.4h28.8v28.8H799v-14.4zm186.6-172.2h28.8v-14.4h14.4v-14.4h14.4v-72h-14.4V504h-14.4v-14.4h-57.6v129.6h28.8v-.3h0zm0-43.1v-57.6h14.4v14.4h14.4v43.2H1000v14.4h-14.4v-14.4z"/></g><g fill="#64438e"><path d="M1100.5 906h14.4v14.4h-14.4z"/><path d="M1114.8 920.3h14.4v14.4h-14.4z"/><path d="M1129.2 934.7h14.4v14.4h-14.4z"/><path d="M1143.6 949h14.4v14.4h-14.4z"/><path d="M1157.9 963.4h14.4v14.4h-14.4z"/><path d="M1172.3 977.7h14.4v14.4h-14.4zm-157.9-157.9h14.4v14.4h-14.4z"/><path d="M1028.7 834.2h14.4v14.4h-14.4z"/><path d="M1043.1 848.6h14.4V863h-14.4z"/><path d="M1057.4 862.9h14.4v14.4h-14.4z"/><path d="M1071.8 877.3h14.4v14.4h-14.4z"/><path d="M1086.1 891.6h14.4V906h-14.4zM928.2 733.7h14.4v14.4h-14.4z"/><path d="M942.6 748.1H957v14.4h-14.4z"/><path d="M956.9 762.4h14.4v14.4h-14.4z"/><path d="M1014.4 791.1v-14.3h-43.1v14.3h14.3v14.4h14.4v14.3h14.4v-28.7zM885.2 690.6h14.4V705h-14.4z"/><path d="M899.5 705h14.4v14.4h-14.4z"/><path d="M913.9 719.4h14.4v14.4h-14.4z"/></g><path d="M856.4 647.6h14.4V662h-14.4zm-71.7-71.8h14.4v14.4h-14.4z" fill="#e4b9ff"/><g fill="#c260ff"><path d="M1114.8 891.6h14.4V906h-14.4z"/><path d="M1129.2 906h14.4v14.4h-14.4z"/><path d="M1143.6 920.3h14.4v14.4h-14.4zm28.7 28.7h14.4v14.4h-14.4z"/><path d="M1186.6 963.4h14.4v14.4h-14.4zm-157.9-157.9h14.4v14.4h-14.4z"/><path d="M1043.1 819.8h14.4v14.4h-14.4zm57.4 57.5h14.4v14.4h-14.4zM942.6 719.4H957v14.4h-14.4zm43 43h14.4v14.4h-14.4zm28.8 28.7h14.4v14.4h-14.4zM870.8 661.9h-14.4v14.4h14.4v14.3h14.4v-14.3h-14.4z"/><path d="M885.2 661.9v-14.3h-14.4v14.3h14.4v14.4h14.3v-14.4z"/><path d="M899.5 676.3h14.4v14.4h-14.4zm28.7 28.7h14.4v14.4h-14.4zM827.7 575.8h-14.3v14.4h14.3v14.3h14.4v-14.3h-14.4z"/><path d="M870.8 633.2v-14.3h-14.4v-14.4h-14.3v14.4h14.3v14.3zm0-43h14.4v14.4h-14.4z"/><path d="M856.4 590.2h14.4v-14.4h-14.4v-14.4h-14.3v14.4h14.3zm-86.1-14.4h14.4v14.4h-14.4z"/><path d="M784.7 561.4h14.4v14.4h-14.4zm-14.4 71.8h14.4v14.4h-14.4zm57.4 0h-14.3v14.4h14.3v14.3h14.4v-14.3h-14.4z"/><path d="M799 633.2h14.4v-14.3H799v-14.4h-14.3v14.4H799zm0 14.4h-14.3v14.3H799v14.4h14.4v-14.4H799zm-43-86.2h14.4v14.4H756z"/><path d="M770.3 547.1h14.4v14.4h-14.4z"/></g><g fill="#f8ebff"><path d="M1157.9 934.7h14.4v14.4h-14.4zm-100.5-100.5h14.4v14.4h-14.4z"/><path d="M1071.8 848.6h14.4V863h-14.4z"/><path d="M1086.1 862.9h14.4v14.4h-14.4zM956.9 733.7h14.4v14.4h-14.4z"/><path d="M971.3 748.1h14.4v14.4h-14.4zm-57.4-57.5h14.4V705h-14.4zm-71.8-57.4h14.4v14.4h-14.4z"/><path d="M827.7 618.9h14.4v14.4h-14.4z"/><path d="M813.4 604.5h14.4v14.4h-14.4z"/><path d="M799 590.2h14.4v14.4H799zm57.4-14.4h-14.3v14.4h14.3v14.3h14.4v-14.3h-14.4zm-86.1-14.4h14.4v14.4h-14.4zm14.4 71.8h14.4v14.4h-14.4z"/><path d="M799 647.6h14.4V662H799zm71.8 14.3h14.4v14.4h-14.4z"/></g><g fill="#a00ae6"><path d="M1100.5 891.6h14.4V906h-14.4z"/><path d="M1114.8 906h14.4v14.4h-14.4z"/><path d="M1129.2 920.3h14.4v14.4h-14.4z"/><path d="M1143.6 934.7h14.4v14.4h-14.4z"/><path d="M1157.9 949h14.4v14.4h-14.4z"/><path d="M1172.3 963.4h14.4v14.4h-14.4z"/><path d="M1186.6 977.7h14.4v14.4h-14.4zm-172.2-172.2h14.4v14.4h-14.4z"/><path d="M1028.7 819.8h14.4v14.4h-14.4z"/><path d="M1043.1 834.2h14.4v14.4h-14.4z"/><path d="M1057.4 848.6h14.4V863h-14.4z"/><path d="M1071.8 862.9h14.4v14.4h-14.4z"/><path d="M1086.1 877.3h14.4v14.4h-14.4zM928.2 719.4h14.4v14.4h-14.4z"/><path d="M942.6 733.7H957v14.4h-14.4z"/><path d="M956.9 748.1h14.4v14.4h-14.4z"/><path d="M971.3 762.4h14.4v14.4h-14.4zM799 575.8h28.7v14.4h14.4v-14.4h-14.4v-14.4H799v14.4z"/><path d="M856.4 590.2h-14.3v14.3h14.3v14.4h14.4v-14.4h-14.4z"/><path d="M870.8 618.9h14.4v14.4h-14.4zm0-43.1h14.4v14.4h-14.4z"/><path d="M885.2 575.8v-14.4h-28.8v14.4h28.8zm-100.5 43.1v14.3H799v-14.3h-14.3v-28.7h-14.4H756v14.3h14.3v14.4h14.4z"/><path d="M842.1 676.3h0v-14.4h-14.4v-14.3h-14.3v-14.4H799v14.4h14.4v14.3h14.3v14.4h14.4v14.3h14.3v-14.3h0v-14.4h-14.3zm-57.4-14.4h14.4v14.4h-14.4z"/><path d="M770.3 661.9v14.4h14.4v-28.7h-14.4v14.3zM799 547.1h14.4v14.4H799zm100.5 100.5v-14.4h-14.3-14.4v14.4h14.4zM756 547.1h14.4v14.4H756zm129.2 129.2h14.4v14.4h-14.4z"/><path d="M899.5 690.6h14.4V705h-14.4z"/><path d="M913.9 705h14.4v14.4h-14.4z"/></g><g fill="#d28aff"><path d="M842.1 647.6h14.4V662h-14.4z"/><path d="M856.4 633.2h14.4v14.4h-14.4zm-28.7 0h14.4v14.4h-14.4z"/><path d="M842.1 618.9h14.4v14.4h-14.4zm-28.7 0h14.4v14.4h-14.4z"/><path d="M827.7 604.5h14.4v14.4h-14.4zm-28.7 0h14.4v14.4H799z"/><path d="M813.4 590.2h14.4v14.4h-14.4zm-28.7 0h14.4v14.4h-14.4z"/><path d="M799 575.8h14.4v14.4H799zm28.7-14.4h14.4v14.4h-14.4zm43.1 43.1h14.4v14.4h-14.4zm-100.5 14.4h14.4v14.4h-14.4zm43.1 43h14.4v14.4h-14.4zM756 575.8h14.4v14.4H756zm28.7-28.7h14.4v14.4h-14.4zm100.5 100.5h14.4V662h-14.4zm-28.8 28.7h14.4v14.4h-14.4z"/></g><g fill="#d9d35e"><path d="M1057.4 705h14.4v14.4h-14.4z"/><path d="M1043.1 719.4h14.4v14.4h-14.4zM870.8 891.6h14.4V906h-14.4z"/><path d="M856.4 906h14.4v14.4h-14.4z"/><path d="M842.1 920.3h14.4v14.4h-14.4zm-28.7 43.1H799v14.3h14.4v-14.3h14.3V949h-14.3zm143.5-157.9h14.4v14.4h-14.4z"/><path d="M942.6 819.8H957v14.4h-14.4zm-57.4 57.5h14.4v14.4h-14.4zM1000 762.4h14.4v14.4H1000z"/><path d="M985.6 776.8h14.4v14.4h-14.4z"/><path d="M971.3 791.1h14.4v14.4h-14.4zm143.5-143.5h14.4V662h-14.4z"/><path d="M1100.5 661.9h14.4v14.4h-14.4z"/><path d="M1086.1 676.3h14.4v14.4h-14.4zm86.2-86.1h14.4v14.4h-14.4z"/><path d="M1186.6 575.8h14.4v14.4h-14.4zm-28.7-28.7h-14.4v14.4h-14.4v14.4h-14.4v-14.4h-14.4v14.4h-14.4v14.4h-14.4v14.4h-14.4v14.4h-14.4v14.4h14.4v14.4h14.4v14.4h14.4v-14.4h-14.4v-14.4h14.4v-14.4h14.4v-14.4h14.4v-14.4h14.4v-14.4h14.4v-14.4h14.4v-14.4h14.4v-14.4h-14.4v14.4zm-100.5 86.1v-14.4h14.4v14.4h-14.4zm14.4-14.3v-14.4h14.4v14.4h-14.4zm14.3-14.4v-14.4h14.4v14.4h-14.4zm14.4-14.3v-14.4h14.4v14.4h-14.4z"/></g><g fill="#ddedd6"><path d="M1071.8 690.6h14.4V705h-14.4zm57.4-57.4h14.4v14.4h-14.4z"/><path d="M1143.6 618.9h14.4v14.4h-14.4z"/><path d="M1157.9 604.5h14.4v14.4h-14.4zm-28.7-57.4h14.4v-14.4h14.3v-14.3h-14.3v14.3h-14.4v14.4h-14.4v14.3h14.4zm-14.4 143.5h14.4V705h-14.4zM827.7 934.7h14.4v14.4h-14.4zm100.5-100.5h14.4v14.4h-14.4z"/><path d="M913.9 848.6h14.4V863h-14.4z"/><path d="M899.5 862.9h14.4v14.4h-14.4zM1201 561.4h14.4v14.4H1201zm-172.3 172.3h14.4v14.4h-14.4z"/><path d="M1014.4 748.1h14.4v14.4h-14.4z"/></g><g fill="#d27d2c"><path d="M885.2 891.6h14.4V906h-14.4z"/><path d="M870.8 906h14.4v14.4h-14.4z"/><path d="M856.4 920.3h14.4v14.4h-14.4z"/><path d="M842.1 934.7h14.4v14.4h-14.4z"/><path d="M827.7 949h14.4v14.4h-14.4z"/><path d="M813.4 977.7H799v14.4h14.4v-14.4h14.3v-14.3h-14.3zm157.9-172.2h14.4v14.4h-14.4z"/><path d="M956.9 819.8h14.4v14.4h-14.4z"/><path d="M942.6 834.2H957v14.4h-14.4z"/><path d="M928.2 848.6h14.4V863h-14.4z"/><path d="M913.9 862.9h14.4v14.4h-14.4z"/><path d="M899.5 877.3h14.4v14.4h-14.4zm157.9-157.9h14.4v14.4h-14.4z"/><path d="M1043.1 733.7h14.4v14.4h-14.4z"/><path d="M1028.7 748.1h14.4v14.4h-14.4z"/><path d="M1014.4 762.4h14.4v14.4h-14.4z"/><path d="M1000 776.8h14.4v14.4H1000z"/><path d="M985.6 791.1h14.4v14.4h-14.4zm143.6-143.5h14.4V662h-14.4z"/><path d="M1143.6 633.2h14.4v14.4h-14.4z"/><path d="M1157.9 618.9h14.4v14.4h-14.4z"/><path d="M1172.3 604.5h14.4v14.4h-14.4z"/><path d="M1186.6 590.2h14.4v14.4h-14.4z"/><path d="M1201 575.8h14.4v14.4H1201z"/><path d="M1215.3 561.4h14.4v14.4h-14.4zm-157.9 100.5h14.4v14.4h14.3v-14.4h-14.3v-14.3h-14.4v-14.4h-14.3v14.4h14.3z"/><path d="M1071.8 647.6h14.3v14.3h14.4v-14.3h-14.4v-14.4h-14.3v-14.3h14.3v-14.4h14.4v-14.3h14.3v-14.4h14.4v-14.4h14.4v-14.3h14.3v-14.4h14.4v-14.3h-14.4v14.3h-14.3v14.4h-14.4v14.3h-14.4v14.4h-14.3v14.4h-14.4v14.3h-14.3v14.4h-14.4v14.3h14.4zm71.8 71.8h-14.4V705h-14.4v14.4h14.4v14.3h14.4v14.4h14.3v-14.4h-14.3z"/><path d="M1258.4 618.9v14.3H1244v14.4h-14.3v14.3h-14.4v14.4H1201v14.3h-14.4V705h-14.3v14.4h-14.4V705h-14.3v-14.4h-14.4V705h14.4v14.4h14.3v14.3h14.4v-14.3h14.3V705h14.4v-14.4h14.3v-14.3h14.4v-14.4h14.3v-14.3h14.4v-14.4h14.3v-14.3zm-143.6 43h14.4v14.4h-14.4z"/><path d="M1100.5 676.3h14.4v14.4h-14.4z"/><path d="M1086.1 690.6h14.4V705h-14.4z"/><path d="M1071.8 705h14.4v14.4h-14.4z"/></g><g fill="#854c30"><path d="M885.2 906h14.4v14.4h-14.4z"/><path d="M870.8 920.3h14.4v14.4h-14.4z"/><path d="M856.4 934.7h14.4v14.4h-14.4z"/><path d="M842.1 949h14.4v14.4h-14.4z"/><path d="M827.7 977.7h-14.3v14.4h14.3v-14.4h14.4v-14.3h-14.4zm143.6-157.9h14.4v14.4h-14.4z"/><path d="M956.9 834.2h14.4v14.4h-14.4z"/><path d="M942.6 848.6H957V863h-14.4z"/><path d="M928.2 862.9h14.4v14.4h-14.4z"/><path d="M913.9 877.3h14.4v14.4h-14.4z"/><path d="M899.5 891.6h14.4V906h-14.4zm157.9-157.9h14.4v14.4h-14.4z"/><path d="M1043.1 748.1h14.4v14.4h-14.4z"/><path d="M1028.7 762.4h14.4v14.4h-14.4z"/><path d="M1014.4 776.8h14.4v14.4h-14.4z"/><path d="M1000 791.1h14.4v14.4H1000z"/><path d="M985.6 805.5h14.4v14.4h-14.4zm143.6-143.6h14.4v14.4h-14.4z"/><path d="M1114.8 676.3h14.4v14.4h-14.4z"/><path d="M1100.5 690.6h14.4V705h-14.4z"/><path d="M1086.1 705h14.4v14.4h-14.4z"/><path d="M1071.8 719.4h14.4v14.4h-14.4zm71.8-71.8h14.4V662h-14.4z"/><path d="M1157.9 633.2h14.4v14.4h-14.4z"/><path d="M1172.3 618.9h14.4v14.4h-14.4z"/><path d="M1186.6 604.5h14.4v14.4h-14.4z"/><path d="M1201 590.2h14.4v14.4H1201z"/><path d="M1215.3 575.8h14.4v14.4h-14.4zm-129.2 86.1h14.4v14.4h-14.4zm172.3-28.7v-14.4H1244v14.4h-14.4v14.4h-14.4V662H1201v14.4h-14.4v14.4h-14.4V705h-14.4v14.4h-14.4V705H1129v14.4h14.4v14.4h14.4v14.4h14.4v-14.4h14.4v-14.4h14.4V705h14.4v-14.4h14.4v-14.4h14.4v-14.4h14.4v-14.4h14.4V633h-14.6v.2h0zm-100.5 100.5v-14.4h14.4v14.4h-14.4zm14.4-14.3V705h14.4v14.4h-14.4zm14.3-14.4v-14.4h14.4V705h-14.4zm14.4-14.4v-14.4h14.4v14.4H1201zm14.3-14.3v-14.4h14.4v14.4h-14.4zm14.4-14.4v-14.4h14.4v14.4h-14.4zm14.3-14.3v-14.4h14.4v14.4H1244z"/></g><g fill="#f8ebff"><path d="M913.9 575.8h14.4v14.4h-14.4zm0-28.7h14.4v14.4h-14.4zm0-28.7h14.4v14.4h-14.4zm-28.7 57.4h14.4v14.4h-14.4z"/><path d="M899.5 561.4h14.4v14.4h-14.4z"/><path d="M885.2 547.1h14.4v14.4h-14.4z"/><path d="M899.5 532.7h14.4v14.4h-14.4z"/><path d="M885.2 518.4h14.4v14.4h-14.4zM784.7 705h14.4v14.4h-14.4zm71.7-157.9h14.4v14.4h-14.4z"/><path d="M870.8 532.7h14.4v14.4h-14.4z"/><path d="M856.4 518.4h14.4v14.4h-14.4zm-86.1 172.2h14.4V705h-14.4z"/><path d="M784.7 676.3h14.4v14.4h-14.4zm-14.4-143.6h14.4v14.4h-14.4z"/><path d="M784.7 518.4h14.4v14.4h-14.4zM756 705h14.4v14.4H756z"/><path d="M741.6 690.6H756V705h-14.4z"/><path d="M756 676.3h14.4v14.4H756z"/><path d="M741.6 661.9H756v14.4h-14.4z"/><path d="M756 647.6h14.4V662H756zm-14.4-86.2H756v14.4h-14.4zm0-28.7H756v14.4h-14.4z"/><path d="M756 518.4h14.4v14.4H756zm-28.7 0h14.4v14.4h-14.4zm0 186.6h14.4v14.4h-14.4zm0-28.7h14.4v14.4h-14.4zm0-28.7h14.4V662h-14.4zm0-71.8h14.4v14.4h-14.4zm0-28.7h14.4v14.4h-14.4z"/></g><path d="M1430.7 1336.6v-172.2h-287.1v28.7H856.4v-28.7H569.3v57.4 28.7 86.1h287.1v28.7h287.2v-28.7h287.1zm-689.1-57.4h-57.4v-28.7-28.7h0 57.4 0v28.7 28.7zm114.8 0H799v-28.7-28.7h0 57.4 0v28.7 28.7zm86.2 28.7v-57.4h114.8v57.4H942.6zm258.4-28.7h-57.4v-28.7-28.7h57.4 0v57.4zm114.8 0h-57.4v-28.7-28.7h57.4 0 0v57.4z" fill="#f4e2ff"/><path d="M1430.7 1250.5v57.4h-28.8v28.7h-28.7v57.4h28.7v-28.7h28.8v-28.7h28.7v-86.1h-28.7 0zm-832.6 57.4h-28.8v-57.4h-28.7v86.1h28.7v28.7h28.8v28.7h28.7v-57.4h-28.7v-28.7zm401.9-57.4h-57.4v57.4h114.8v-57.4H1000zm-315.8-14.35v14.35 28.7h57.4v-28.7-14.35-14.35h-57.4v14.35zm114.8 6.28v8.07 28.7h57.4v-28.7-8.07-20.63H799v20.63zm344.6 0v8.07 28.7h57.4v-28.7-8.07-20.63h-57.4v20.63zm114.8-20.63v20.63 8.07 28.7h57.4v-28.7-8.07-20.63h-57.4z" fill="#c260ff"/><path d="M1574.2 1307.9v-28.7h28.7v-28.7h-143.5v86.1h-28.7v28.7h-28.8v28.7h201v-28.7h-28.7v-28.7h-28.7v-28.7h28.7 0zm-1033.6 0v-57.4H397.1v28.7h28.7v28.7h28.7v28.7h-28.7v28.7h-28.7v28.7h201v-28.7h-28.8v-28.7h-28.7v-28.7z" fill="#f4e2ff"/><g fill="#64438e"><path d="M1631.6 1221.8h-172.2v-86.1h-315.8v28.7h287.1v86.1h172.2v28.7h28.7v-28.7h28.7v-28.7h-28.7zm-1091-86.1v86.1H339.7v28.7h229.6v-86.1h287.1v-28.7H540.6z"/><path d="M1000 1164.4H856.4v28.7h287.1v-28.7H1000z"/></g></svg>