<svg xmlns="http://www.w3.org/2000/svg" xmlns:xlink="http://www.w3.org/1999/xlink" viewBox="0 0 2000 2000"><path d="M1446.63 510.35V476H553.37v34.35h-34.35v532.68h34.35v171.73h34.35v34.35 34.35h34.35v34.35h34.35v34.35h34.35v34.47h34.35v34.35h34.35v34.35h34.35v34.35h34.35v34.35h34.47 309.24v-34.35h34.35v-34.35h34.35v-34.35h34.35v-34.35h34.35v-34.47h34.35v-34.35h34.35v-34.35h34.35v-68.69h34.35v-171.73h34.35V510.36h-34.4z" fill="#64438e"/><path d="M1360.82 579.16h-51.7-34.35-652.95v464.34h34.47v171.38h34.47v68.93h34.47v34.47h34.23v34.47h34.47v34.47h34.47v34.47h172.33 137.87 34.47v-35.19h34.47v-34.47h34.47v-34.47h34.47v-34.47h34.47v-68.93h34.47v-171.38h34.47V579.16h-19.07zm-51.58 17.11h17.23v17.23h-17.23v-17.23h0zm-292.01 790.34h-34.47v-17.23h34.47v17.23h0zm0-34.46h-86.17v-17.23h86.17 17.23 34.47v17.23h-34.47-17.23zm34.35-51.46h68.93v17.23h-86.17-17.23-137.75v-17.23h120.63 34.47 17.12zm103.04-17.24h-120.63H1000 827.67v-17.23h344.67v17.23h-17.72zm-17.23-326.35v51.7h-17.23v-68.93h17.23v17.23zm-34.35 17.11v17.23h-17.23v-34.47h17.23v17.24zM879.73 957.1v51.7H862.5v-68.93h17.23v17.23zm137.5-68.7h-34.47v-17.23h34.47v17.23zm34.35-34.46H948.3V836.7h103.4v17.23h-.12zm-17.23-34.35h-68.81v-17.23h68.93v17.23h-.12zM896.96 991.44v-34.47h17.23v34.47h-17.23zm85.81 85.93v-17.23h34.47v34.47h-34.47v-17.24zm-51.46 51.46v-17.11h34.47v34.47h-34.47v-17.36zm51.46 0v-17.11h34.47v34.47h-34.47v-17.36zm51.58 0v-17.11h34.47v34.47h-34.47v-17.36zm-154.62 51.58v-17.23h34.47v34.47h-34.47v-17.24zm51.58 0v-17.23h34.47v34.47h-34.47v-17.24zm51.46 0v-17.23h34.47v34.47h-34.47v-17.24zm51.58 0v-17.23h34.47v34.47h-34.47v-17.24zm51.58 0v-17.23h34.47v34.47h-34.47v-17.24zm-257.78 51.58v-17.23h34.47v34.47h-34.47v-17.24zm51.58 0v-17.23h34.47v34.47h-34.47v-17.24zm51.58 0v-17.23h34.47v34.47h-34.47v-17.24zm51.46 0v-17.23h34.47v34.47h-34.47v-17.24zm51.58 0v-17.23h34.47v34.47h-34.47v-17.24zm51.58 0v-17.23h34.47v34.47h-34.47v-17.24zm51.46 0v-17.23h34.47v34.47h-34.47v-17.24zm154.62-635.72v17.23h-17.23v-17.23h17.23zm-34.35 0v17.23h-17.11v-17.23h17.11zm-34.35 0v17.23h-17.23v-17.23h17.23zm-34.34 0v17.23h-17.23v-17.23h17.23zm-34.35 0v17.23h-17.23v-17.23h17.23zm-34.35 0v17.23h-17.23v-17.23h17.23zm-34.34 0v17.23h-17.23v-17.23h17.23zm-34.35 0v17.23h-17.23v-17.23h17.23zm-120.27 0v17.23h-17.23v-17.23h17.23zm-34.35 0v17.23h-17.23v-17.23h17.23zm-34.35 0v17.23h-17.23v-17.23h17.23zm-34.46 0v17.23h-17.23v-17.23h17.23zm-34.35 0v17.23h-17.23v-17.23h17.23zm-34.35 0v17.23h-17.23v-17.23h17.23zm-34.35 0v17.23h-17.11v-17.23h17.11zm-34.34 0v17.23h-17.23v-17.23h17.23zm-51.58 0h17.23v17.23h-17.23v-17.23zm0 34.35h17.23v17.23h-17.23v-17.23zm0 34.35h17.23v17.23h-17.23v-17.23zm0 34.34h17.23v17.23h-17.23v-17.23zm0 34.47h17.23v17.23h-17.23v-17.23zm0 34.35h17.23v17.23h-17.23v-17.23zm0 34.35h17.23v17.23h-17.23v-17.23zm0 34.34h17.23v17.23h-17.23v-17.23zm0 34.35h17.23v17.23h-17.23v-17.23zm0 34.35h17.23v17.23h-17.23v-17.23zm0 34.34h17.23v17.23h-17.23v-17.23zm0 34.35h17.23v17.23h-17.23v-17.23zm0 51.58v-17.23h17.23v17.23h-17.23zm34.46 17.23h17.23v17.23h-17.23v-17.23zm0 34.35h17.23v17.23h-17.23v-17.23zm0 34.35h17.23v17.23h-17.23v-17.23zm0 34.34h17.23v17.11h-17.23v-17.11zm0 51.46v-17.23h17.23v17.23h-17.23zm34.35 68.82v-17.23h17.23v17.23h-17.23zm171.74 137.39v-17.23h17.23v17.23h-17.23zm34.34 0v-17.23h17.23v17.23h-17.23zm34.35 0v-17.23h17.23v17.23h-17.23zm85.93 0v-17.23h17.23v17.23h-17.23zm34.34 0v-17.23h17.23v17.23h-17.23zm34.35 0v-17.23h17.23v17.23h-17.23zm51.58 0h-17.23 0v-17.23h17.23v17.23zm34.35-34.35h-17.23v-17.23h17.23v17.23zm34.34-34.35h-17.23v-17.23h17.23v17.23zm34.35-34.34h-17.11v-17.23h17.23v17.23h-.12zm34.35-34.35h-17.23v-17.23h17.23v17.23zm0-34.35h-17.23v-17.23h17.23v17.23zm34.35-34.47h-17.23v-17.23h17.23v17.23zm0-34.34h-17.23v-17.23h17.23v17.23zm0-34.35h-17.23v-17.11h17.23v17.11zm0-34.35h-17.23v-17.23h17.23v17.23zm0-34.34h-17.23v-17.23h17.23v17.23zm34.46-34.35h-17.23v-17.23h17.23v17.23zm0-34.35h-17.23v-17.23h17.23v17.23zm0-34.34h-17.23v-17.23h17.23v17.23zm0-34.35h-17.23v-17.23h17.23v17.23zm0-34.35h-17.23v-17.23h17.23v17.23zm0-34.46h-17.23V836.7h17.23v17.24zm0-34.35h-17.23v-17.23h17.23v17.23zm0-34.35h-17.23v-17.23h17.23v17.23zm0-34.34h-17.23v-17.23h17.23v17.23zm0-51.59v17.23h-17.23v-17.23h17.23zm0-51.46h-17.23v-17.23h17.23v17.23zm0-34.34h-17.23v-17.23h17.23v17.23z" fill="#eccdff"/><g fill="#c260ff"><path d="M965.65 1111.72H931.3v17.11h34.35v-17.11zm68.7 17.11h34.35v-17.11h-34.35v17.11z"/><use xlink:href="#B"/><use xlink:href="#B" y="34.35"/><use xlink:href="#B" y="-34.34"/><use xlink:href="#B" y="-68.69"/><use xlink:href="#B" y="-103.04"/><use xlink:href="#B" y="-137.51"/><use xlink:href="#B" y="-171.85"/><use xlink:href="#B" x="-704.41" y="34.35"/><path d="M1085.93 1163.18v17.23h34.35v-17.23h-34.35zm51.46 68.81h34.47v-17.23h-34.47v17.23zm-17.12-17.23h-34.35v17.23h34.35v-17.23z"/><use xlink:href="#B" x="-103.04" y="446.63"/><use xlink:href="#B" x="-68.7" y="377.94"/><use xlink:href="#B" x="-68.7" y="412.28"/><path d="M965.65 1163.18H931.3v17.23h34.35v-17.23zm-85.92 17.23h34.35v-17.23h-34.35v17.23zm85.92 34.35H931.3v17.23h34.35v-17.23zm-85.92 17.23h34.35v-17.23h-34.35v17.23zm-17.12 0v-17.23h-34.47v17.23h34.47z"/><use xlink:href="#B" x="-429.52" y="549.79"/><path d="M1034.35 1180.41h34.35v-17.23h-34.35v17.23zm0 51.58h34.35v-17.23h-34.35v17.23z"/><use xlink:href="#B" x="-463.86" y="549.79"/><use xlink:href="#B" x="-704.41"/><use xlink:href="#B" x="-704.41" y="-34.34"/><use xlink:href="#B" x="-704.41" y="-68.69"/><use xlink:href="#B" x="-704.41" y="-103.04"/><use xlink:href="#B" x="-704.41" y="-137.51"/><use xlink:href="#B" x="-704.41" y="-171.85"/><use xlink:href="#B" x="-309.24" y="549.79"/><use xlink:href="#B" x="-274.9" y="549.79"/><use xlink:href="#B" x="-137.39" y="480.98"/><use xlink:href="#B" x="-171.74" y="515.33"/><use xlink:href="#B" x="-206.2" y="549.79"/><use xlink:href="#B" x="-240.55" y="549.79"/><use xlink:href="#B" x="-395.17" y="549.79"/><path d="M1017.23 1077.37v-17.23h-34.47v17.23h34.47zm-34.46 51.46h34.47v-17.11h-34.47v17.11zm0 51.58h34.47v-17.23h-34.47v17.23zm0 51.58h34.47v-17.23h-34.47v17.23z"/><use xlink:href="#C"/><use xlink:href="#C" x="34.35" y="-34.35"/><path d="M1240.55 1352.15v34.47h34.35v-34.47h-34.35z"/><use xlink:href="#C" x="103.04" y="-103.16"/><use xlink:href="#C" x="137.39" y="-137.51"/><path d="M1343.59 1214.76v68.69h34.35v-68.69h-34.35z"/><path d="M1377.94 1043.02v171.73h34.35v-171.73h-34.35z"/><use xlink:href="#B" x="-34.35" y="309.24"/><use xlink:href="#B" x="-34.35" y="343.59"/><use xlink:href="#B" x="-34.35" y="240.55"/><use xlink:href="#B" x="-34.35" y="274.9"/><use xlink:href="#B" x="-34.35" y="206.2"/><use xlink:href="#B" y="68.7"/><use xlink:href="#B" y="171.74"/><use xlink:href="#B" y="137.39"/><use xlink:href="#B" y="103.04"/><use xlink:href="#B" y="-206.2"/><use xlink:href="#B" x="-68.7" y="-240.55"/><use xlink:href="#B" y="-240.55"/><use xlink:href="#B" x="-34.35" y="-240.55"/><path d="M1429.52 510.35H553.37v532.68h34.35V544.82h824.57v498.21h34.35V510.35h-17.12z"/><use xlink:href="#B" x="-704.41" y="-206.2"/><use xlink:href="#B" x="-429.52" y="-240.55"/><use xlink:href="#B" x="-463.86" y="-240.55"/><use xlink:href="#B" x="-498.21" y="-240.55"/><use xlink:href="#B" x="-532.56" y="-240.55"/><use xlink:href="#B" x="-566.9" y="-240.55"/><use xlink:href="#B" x="-601.25" y="-240.55"/><use xlink:href="#B" x="-635.6" y="-240.55"/><use xlink:href="#B" x="-669.95" y="-240.55"/><use xlink:href="#B" x="-704.41" y="-240.55"/><use xlink:href="#B" x="-103.04" y="-240.55"/><use xlink:href="#B" x="-137.39" y="-240.55"/><use xlink:href="#B" x="-171.74" y="-240.55"/><use xlink:href="#B" x="-206.2" y="-240.55"/><use xlink:href="#B" x="-240.55" y="-240.55"/><use xlink:href="#B" x="-274.9" y="-240.55"/><use xlink:href="#B" x="-309.24" y="-240.55"/><path d="M587.72 1077.37v137.39h34.35v-171.73h-34.35v34.34z"/><path d="M622.06 1249.1v34.35h34.35v-68.69h-34.35v34.34z"/><path d="M656.41 1317.8h34.35v-34.35h-34.35v34.35z"/><path d="M690.76 1352.15h34.35v-34.35h-34.35v34.35z"/><path d="M725.1 1386.61h34.35v-34.47H725.1v34.47z"/><path d="M759.45 1420.96h34.35v-34.35h-34.35v34.35zm377.94 34.35H862.61h-34.47v34.35h34.47 309.24v-34.35h-34.46z"/><path d="M793.8 1420.96v34.35h34.35v-34.35H793.8z"/><use xlink:href="#B" x="-601.25" y="446.63"/><use xlink:href="#B" x="-566.9" y="480.98"/><use xlink:href="#B" x="-532.56" y="515.33"/><use xlink:href="#B" x="-498.21" y="549.79"/><use xlink:href="#B" x="-635.6" y="377.94"/><use xlink:href="#B" x="-635.6" y="412.28"/><use xlink:href="#B" x="-669.95" y="206.2"/><use xlink:href="#B" x="-669.95" y="240.55"/><use xlink:href="#B" x="-669.95" y="274.9"/><use xlink:href="#B" x="-669.95" y="309.24"/><use xlink:href="#B" x="-669.95" y="343.59"/><use xlink:href="#B" x="-704.41" y="68.7"/><use xlink:href="#B" x="-704.41" y="171.74"/><use xlink:href="#B" x="-704.41" y="137.39"/><use xlink:href="#B" x="-704.41" y="103.04"/></g><g fill="#a00ae6"><path d="M1000 802.48h-34.35v17.11h68.69v-17.11H1000zm17.23 68.69h-34.47v17.23h34.47v-17.23zM914.07 974.21V957.1h-17.11v34.35h17.11v-17.24zm-34.34 17.23v-51.58h-17.11v68.69h17.11v-17.11zm223.31-17.23V957.1h-17.11v34.35h17.11v-17.24zm34.35 17.23v-51.58h-17.11v68.69h17.11v-17.11zm-171.74 154.62v-17.23H931.3v17.23h34.35zm68.7-17.23v17.23h34.35v-17.23h-34.35zM587.72 544.81v498.21h34.35V579.16h755.87v463.86h34.35V544.81H587.72z"/><path d="M1343.59 1043.02v171.73h34.35v-171.73h-34.35zm-223.32 154.5v-17.11h-34.35v17.11h34.35z"/><path d="M1137.39 1231.99v17.11h34.47v-17.11h-34.47zm171.85-17.23v68.69h34.35v-68.69h-34.35zm-188.97 34.34v-17.11h-34.35v17.11h34.35zm17.12 17.24H828.15v17.11h343.71v-17.11h-34.47z"/><use xlink:href="#C" x="103.04" y="-137.51"/><path d="M1085.93 1300.69h-51.58-17.11-137.51v17.11h137.51 17.11 85.93v-17.11h-34.35zm120.27 51.46v34.47h34.35v-34.47h-34.35z"/><use xlink:href="#C" x="68.7" y="-103.16"/><path d="M965.65 1197.52v-17.11H931.3v17.11h34.35zm-85.92 0h34.35v-17.11h-34.35v17.11zm85.92 51.58v-17.11H931.3v17.11h34.35zm-85.92-17.11v17.11h34.35v-17.11h-34.35zm-51.58 17.11h34.47v-17.11h-34.47v17.11zm240.54-68.69h-34.35v17.11h34.35v-17.11zm-34.34 51.58v17.11h34.35v-17.11h-34.35zm0 103.04H931.31v17.11h137.39v-17.11h-34.35z"/><use xlink:href="#C" y="-34.35"/><path d="M828.15 1386.61H793.8v34.35h34.35v-34.35z"/><path d="M793.8 1352.15h-34.35v34.47h34.35v-34.47z"/><path d="M759.45 1317.8H725.1v34.35h34.35v-34.35z"/><path d="M725.1 1283.45h-34.35v34.35h34.35v-34.35z"/><path d="M690.76 1249.1v-34.35h-34.35v68.69h34.35v-34.34zm292.01-395.16h68.81v-17.11H948.42v17.11h34.35zm0 515.44v17.23h34.47v-17.23h-34.47zm-154.62 51.58v34.35h343.71v-34.35H828.15zm189.08-240.55h-34.47v17.11h34.47v-17.11zm0-51.58h-34.47v17.23h34.47v-17.23zm0-51.46h-34.47v17.11h34.47v-17.11zm-34.46 154.62v17.11h34.47v-17.11h-34.47z"/><path d="M656.41 1180.41v-137.39h-34.35v171.73h34.35v-34.34zm601.25-240.55h-68.81v17.23h-17.23v120.63h17.23v17.23h68.93v-17.23h17.23V957.09h-17.23v-17.23h-.12zm-17.11 51.58v68.93h-34.47V974.2h34.47v17.24zm-412.4 68.7V939.51h-17.23v-17.23h-68.69v17.23H725v137.87h34.47v-51.7h34.47v51.7h34.47v-17.23h-.26zm-68.7-85.93v-17.23h34.47v34.47h-34.47v-17.24zm223.32-206.08h34.47V750.9h17.23v-17.23h17.23V647.5h-17.23v-16.87h-17.23V613.4h-68.93v155.1h34.47v-.37zm0-51.58v-68.93H1000v17.23h17.23v51.7H1000v17.23h-17.23v-17.23z"/></g><g fill="#64438e"><use xlink:href="#B" x="-223.32" y="274.9"/><use xlink:href="#B" x="-206.2" y="292.01"/><use xlink:href="#B" x="-188.97" y="309.24"/><use xlink:href="#B" x="-171.74" y="326.36"/><use xlink:href="#B" x="-154.62" y="343.59"/><use xlink:href="#B" x="-137.39" y="360.7"/><use xlink:href="#B" x="-326.36" y="171.74"/><use xlink:href="#B" x="-309.24" y="188.97"/><use xlink:href="#B" x="-292.01" y="206.2"/><use xlink:href="#B" x="-274.9" y="223.32"/><use xlink:href="#B" x="-257.66" y="240.55"/><use xlink:href="#B" x="-240.55" y="257.66"/><use xlink:href="#B" x="-429.52" y="68.7"/><use xlink:href="#B" x="-412.28" y="85.93"/><use xlink:href="#B" x="-395.17" y="103.04"/><path d="M1017.23 974.21V957.1h-51.58v17.11h17.11v17.23H1000v17.11h17.23v-34.34z"/><use xlink:href="#B" x="-480.98" y="17.12"/><use xlink:href="#B" x="-463.86" y="34.35"/><use xlink:href="#B" x="-446.63" y="51.58"/></g><g fill="#e4b9ff"><use xlink:href="#B" x="-515.44" y="-34.34"/><use xlink:href="#B" x="-601.25" y="-120.27"/></g><g fill="#c260ff"><use xlink:href="#B" x="-206.2" y="257.66"/><use xlink:href="#B" x="-188.97" y="274.9"/><use xlink:href="#B" x="-171.74" y="292.01"/><use xlink:href="#B" x="-137.39" y="326.36"/><use xlink:href="#B" x="-120.28" y="343.59"/><use xlink:href="#B" x="-309.24" y="154.62"/><use xlink:href="#B" x="-292.01" y="171.74"/><use xlink:href="#B" x="-223.32" y="240.55"/><use xlink:href="#B" x="-412.28" y="51.58"/><path d="M982.77 939.86H1000v17.23h-17.23z"/><use xlink:href="#B" x="-326.36" y="137.39"/><path d="M845.38 819.59h-17.23v17.23h17.23v17.12h17.23v-17.12h-17.23z"/><path d="M862.61 819.59v-17.11h-17.23v17.11h17.23v17.23h17.12v-17.23z"/><use xlink:href="#B" x="-463.86"/><use xlink:href="#B" x="-429.52" y="34.35"/><path d="M793.8 716.55h-17.11v17.23h17.11v17.12h17.23v-17.12H793.8z"/><path d="M845.38 785.24v-17.11h-17.23V750.9h-17.12v17.23h17.12v17.11z"/><use xlink:href="#B" x="-498.21" y="-103.04"/><path d="M828.15 733.78h17.23v-17.23h-17.23v-17.24h-17.12v17.24h17.12zM725.1 716.55h17.23v17.23H725.1z"/><use xlink:href="#B" x="-601.25" y="-137.51"/><path d="M725.1 785.24h17.23v17.23H725.1zm68.7 0h-17.11v17.24h17.11v17.11h17.23v-17.11H793.8z"/><path d="M759.45 785.24h17.24v-17.11h-17.24V750.9h-17.11v17.23h17.11zm0 17.24h-17.11v17.11h17.11v17.23h17.24v-17.23h-17.24z"/><use xlink:href="#B" x="-635.6" y="-137.51"/><path d="M725.1 682.2h17.23v17.23H725.1z"/></g><g fill="#f8ebff"><use xlink:href="#B" x="-154.62" y="309.24"/><use xlink:href="#B" x="-274.9" y="188.97"/><use xlink:href="#B" x="-257.66" y="206.2"/><use xlink:href="#B" x="-240.55" y="223.32"/><use xlink:href="#B" x="-395.17" y="68.7"/><use xlink:href="#B" x="-377.94" y="85.93"/><use xlink:href="#B" x="-446.63" y="17.12"/><use xlink:href="#B" x="-532.56" y="-51.58"/><path d="M793.8 768.13h17.23v17.23H793.8z"/><use xlink:href="#B" x="-566.9" y="-85.92"/><use xlink:href="#B" x="-584.14" y="-103.04"/><path d="M828.15 716.55h-17.12v17.23h17.12v17.12h17.23v-17.12h-17.23zM725.1 699.31h17.23v17.23H725.1z"/><use xlink:href="#B" x="-601.25" y="-51.58"/><use xlink:href="#B" x="-584.14" y="-34.34"/><use xlink:href="#B" x="-498.21" y="-17.23"/></g><g fill="#a00ae6"><use xlink:href="#B" x="-223.32" y="257.66"/><use xlink:href="#B" x="-206.2" y="274.9"/><use xlink:href="#B" x="-188.97" y="292.01"/><use xlink:href="#B" x="-171.74" y="309.24"/><use xlink:href="#B" x="-154.62" y="326.36"/><use xlink:href="#B" x="-137.39" y="343.59"/><use xlink:href="#B" x="-120.28" y="360.7"/><use xlink:href="#B" x="-326.36" y="154.62"/><use xlink:href="#B" x="-309.24" y="171.74"/><use xlink:href="#B" x="-292.01" y="188.97"/><use xlink:href="#B" x="-274.9" y="206.2"/><use xlink:href="#B" x="-257.66" y="223.32"/><use xlink:href="#B" x="-240.55" y="240.55"/><use xlink:href="#B" x="-429.52" y="51.58"/><use xlink:href="#B" x="-412.28" y="68.7"/><use xlink:href="#B" x="-395.17" y="85.93"/><use xlink:href="#B" x="-377.94" y="103.04"/><path d="M759.45 716.55h34.35v17.23h17.23v-17.23H793.8v-17.23h-34.35v17.23z"/><path d="M828.15 733.78h-17.12v17.12h17.12v17.23h17.23V750.9h-17.23z"/><use xlink:href="#B" x="-498.21" y="-68.69"/><use xlink:href="#B" x="-498.21" y="-120.27"/><path d="M862.61 716.55v-17.23h-34.47v17.23h34.47zm-120.27 51.58v17.11h17.11v-17.11h-17.11v-34.35H725.1h-17.11v17.11h17.11v17.23h17.24z"/><path d="M811.03 836.82h0v-17.23H793.8v-17.11h-17.11v-17.24h-17.24v17.24h17.24v17.11h17.11v17.23h17.23v17.12h17.12v-17.12h0v-17.23h-17.12z"/><use xlink:href="#B" x="-601.25" y="-17.23"/><path d="M725.1 819.59v17.23h17.23v-34.35H725.1v17.12z"/><use xlink:href="#B" x="-584.14" y="-154.62"/><path d="M879.73 802.48v-17.24h-17.12-17.23v17.24h17.23z"/><use xlink:href="#B" x="-635.6" y="-154.62"/><use xlink:href="#B" x="-480.98"/><use xlink:href="#B" x="-463.86" y="17.12"/><use xlink:href="#B" x="-446.63" y="34.35"/></g><g fill="#d28aff"><use xlink:href="#B" x="-532.56" y="-34.34"/><use xlink:href="#B" x="-515.44" y="-51.58"/><path d="M793.8 785.24h17.23v17.23H793.8z"/><use xlink:href="#B" x="-532.56" y="-68.69"/><use xlink:href="#B" x="-566.9" y="-68.69"/><path d="M793.8 750.9h17.23v17.23H793.8z"/><use xlink:href="#B" x="-584.14" y="-85.92"/><use xlink:href="#B" x="-566.9" y="-103.04"/><use xlink:href="#B" x="-601.25" y="-103.04"/><use xlink:href="#B" x="-584.14" y="-120.27"/><path d="M793.8 699.31h17.23v17.23H793.8z"/><use xlink:href="#B" x="-498.21" y="-85.92"/><path d="M725.1 768.13h17.23v17.23H725.1z"/><use xlink:href="#B" x="-566.9" y="-17.23"/><use xlink:href="#B" x="-635.6" y="-120.27"/><use xlink:href="#B" x="-601.25" y="-154.62"/><use xlink:href="#B" x="-480.98" y="-34.34"/><use xlink:href="#B" x="-515.44"/></g><g fill="#d9d35e"><use xlink:href="#B" x="-274.9" y="34.35"/><use xlink:href="#B" x="-292.01" y="51.58"/><use xlink:href="#B" x="-498.21" y="257.66"/><use xlink:href="#B" x="-515.44" y="274.9"/><use xlink:href="#B" x="-532.56" y="292.01"/><path d="M776.69 1180.41h-17.24v17.11h17.24v-17.11h17.11v-17.23h-17.11z"/><use xlink:href="#B" x="-395.17" y="154.62"/><use xlink:href="#B" x="-412.28" y="171.74"/><use xlink:href="#B" x="-480.98" y="240.55"/><path d="M1000 939.86h17.23v17.23H1000z"/><path d="M982.77 957.1H1000v17.23h-17.23z"/><use xlink:href="#B" x="-377.94" y="137.39"/><use xlink:href="#B" x="-206.2" y="-34.34"/><use xlink:href="#B" x="-223.32" y="-17.23"/><use xlink:href="#B" x="-240.55"/><use xlink:href="#B" x="-137.39" y="-103.04"/><use xlink:href="#B" x="-120.28" y="-120.27"/><path d="M1188.97 682.2h-17.23v17.23h-17.23v17.23h-17.23v-17.23h-17.23v17.23h-17.23v17.23h-17.23v17.23h-17.23v17.23h-17.23v17.23h17.23v17.23h17.23v17.23h17.23v-17.23h-17.23V785.6h17.23v-17.23h17.23v-17.23h17.23V733.9h17.23v-17.23h17.23v-17.23h17.23V682.2h17.23v-17.23h-17.23v17.23zm-120.28 103.04v-17.23h17.23v17.23h-17.23zm17.24-17.11V750.9h17.23v17.23h-17.23zm17.11-17.23v-17.23h17.23v17.23h-17.23zm17.23-17.12v-17.23h17.23v17.23h-17.23z"/></g><g fill="#ddedd6"><use xlink:href="#B" x="-257.66" y="17.12"/><use xlink:href="#B" x="-188.97" y="-51.58"/><use xlink:href="#B" x="-171.74" y="-68.69"/><use xlink:href="#B" x="-154.62" y="-85.92"/><path d="M1154.62 682.2h17.23v-17.23h17.12v-17.12h-17.12v17.12h-17.23v17.23h-17.23v17.11h17.23z"/><use xlink:href="#B" x="-206.2" y="17.12"/><path d="M793.8 1146.06h17.23v17.23H793.8z"/><use xlink:href="#B" x="-429.52" y="188.97"/><use xlink:href="#B" x="-446.63" y="206.2"/><use xlink:href="#B" x="-463.86" y="223.32"/><use xlink:href="#B" x="-103.04" y="-137.51"/><use xlink:href="#B" x="-309.24" y="68.7"/><use xlink:href="#B" x="-326.36" y="85.93"/></g><g fill="#d27d2c"><use xlink:href="#B" x="-480.98" y="257.66"/><use xlink:href="#B" x="-498.21" y="274.9"/><use xlink:href="#B" x="-515.44" y="292.01"/><use xlink:href="#B" x="-532.56" y="309.24"/><path d="M793.8 1163.18h17.23v17.23H793.8z"/><path d="M776.69 1197.52h-17.24v17.24h17.24v-17.24h17.11v-17.11h-17.11z"/><use xlink:href="#B" x="-377.94" y="154.62"/><use xlink:href="#B" x="-395.17" y="171.74"/><use xlink:href="#B" x="-412.28" y="188.97"/><use xlink:href="#B" x="-429.52" y="206.2"/><use xlink:href="#B" x="-446.63" y="223.32"/><use xlink:href="#B" x="-463.86" y="240.55"/><use xlink:href="#B" x="-274.9" y="51.58"/><use xlink:href="#B" x="-292.01" y="68.7"/><use xlink:href="#B" x="-309.24" y="85.93"/><use xlink:href="#B" x="-326.36" y="103.04"/><path d="M1000 957.1h17.23v17.23H1000z"/><path d="M982.77 974.21H1000v17.23h-17.23z"/><use xlink:href="#B" x="-188.97" y="-34.34"/><use xlink:href="#B" x="-171.74" y="-51.58"/><use xlink:href="#B" x="-154.62" y="-68.69"/><use xlink:href="#B" x="-137.39" y="-85.92"/><use xlink:href="#B" x="-120.28" y="-103.04"/><use xlink:href="#B" x="-103.04" y="-120.27"/><use xlink:href="#B" x="-85.93" y="-137.51"/><path d="M1068.69 819.59h17.24v17.23h17.11v-17.23h-17.11v-17.11h-17.24v-17.24h-17.11v17.24h17.11z"/><path d="M1085.93 802.48h17.11v17.11h17.23v-17.11h-17.23v-17.24h-17.11v-17.11h17.11V750.9h17.23v-17.12h17.12v-17.23h17.23v-17.24h17.23V682.2h17.12v-17.23h17.23v-17.12h-17.23v17.12h-17.12v17.23h-17.23v17.11h-17.23v17.24h-17.12v17.23h-17.23v17.12h-17.11v17.23h-17.24v17.11h17.24zm85.92 85.92h-17.23v-17.23h-17.23v17.23h17.23v17.12h17.23v17.23h17.12v-17.23h-17.12z"/><path d="M1309.24 768.13v17.11h-17.23v17.24h-17.12v17.11h-17.23v17.23h-17.11v17.12h-17.24v17.23h-17.11v17.23h-17.23v-17.23h-17.12v-17.23h-17.23v17.23h17.23v17.23h17.12v17.12h17.23V888.4h17.11v-17.23h17.24v-17.23h17.11v-17.12h17.23v-17.23h17.12v-17.11h17.23v-17.24h17.12v-17.11z"/><use xlink:href="#B" x="-206.2" y="-17.23"/><use xlink:href="#B" x="-223.32"/><use xlink:href="#B" x="-240.55" y="17.12"/><use xlink:href="#B" x="-257.66" y="34.35"/></g><g fill="#854c30"><use xlink:href="#B" x="-480.98" y="274.9"/><use xlink:href="#B" x="-498.21" y="292.01"/><use xlink:href="#B" x="-515.44" y="309.24"/><use xlink:href="#B" x="-532.56" y="326.36"/><path d="M793.8 1197.52h-17.11v17.24h17.11v-17.24h17.23v-17.11H793.8z"/><use xlink:href="#B" x="-377.94" y="171.74"/><use xlink:href="#B" x="-395.17" y="188.97"/><use xlink:href="#B" x="-412.28" y="206.2"/><use xlink:href="#B" x="-429.52" y="223.32"/><use xlink:href="#B" x="-446.63" y="240.55"/><use xlink:href="#B" x="-463.86" y="257.66"/><use xlink:href="#B" x="-274.9" y="68.7"/><use xlink:href="#B" x="-292.01" y="85.93"/><use xlink:href="#B" x="-309.24" y="103.04"/><use xlink:href="#B" x="-326.36" y="120.28"/><path d="M1000 974.21h17.23v17.23H1000z"/><path d="M982.77 991.44H1000v17.23h-17.23z"/><use xlink:href="#B" x="-188.97" y="-17.23"/><use xlink:href="#B" x="-206.2"/><use xlink:href="#B" x="-223.32" y="17.12"/><use xlink:href="#B" x="-240.55" y="34.35"/><use xlink:href="#B" x="-257.66" y="51.58"/><use xlink:href="#B" x="-171.74" y="-34.34"/><use xlink:href="#B" x="-154.62" y="-51.58"/><use xlink:href="#B" x="-137.39" y="-68.69"/><use xlink:href="#B" x="-120.28" y="-85.92"/><use xlink:href="#B" x="-103.04" y="-103.04"/><use xlink:href="#B" x="-85.93" y="-120.27"/><use xlink:href="#B" x="-240.55" y="-17.23"/><path d="M1309.24 785.24v-17.23h-17.23v17.23h-17.23v17.23h-17.23v17.23h-16.99v17.23h-17.23v17.23h-17.23v16.99h-17.23v17.23h-17.23v-17.23h-17.23v17.23h17.23v17.23h17.23v17.23h17.23v-17.23h17.23V888.4h17.23v-17.23h17.23v-17.23h17.23V836.7h17.23v-17.23h17.23v-17.23h17.23V785h-17.47v.24zm-120.27 120.28v-17.23h17.23v17.23h-17.23zm17.23-17.12v-17.23h17.23v17.23h-17.23zm17.11-17.23v-17.23h17.23v17.23h-17.23zm17.24-17.23V836.7h17.23v17.23h-17.23zm17.11-17.12v-17.23h17.23v17.23h-17.23zm17.23-17.23v-17.23h17.23v17.23h-17.23zm17.12-17.11v-17.23h17.23v17.23h-17.23z"/></g><g fill="#f8ebff"><use xlink:href="#B" x="-446.63" y="-120.27"/><use xlink:href="#B" x="-446.63" y="-154.62"/><use xlink:href="#B" x="-446.63" y="-188.97"/><use xlink:href="#B" x="-480.98" y="-120.27"/><use xlink:href="#B" x="-463.86" y="-137.51"/><use xlink:href="#B" x="-480.98" y="-154.62"/><use xlink:href="#B" x="-463.86" y="-171.85"/><use xlink:href="#B" x="-480.98" y="-188.97"/><use xlink:href="#B" x="-601.25" y="34.35"/><use xlink:href="#B" x="-515.44" y="-154.62"/><use xlink:href="#B" x="-498.21" y="-171.85"/><use xlink:href="#B" x="-515.44" y="-188.97"/><path d="M725.1 853.94h17.23v17.23H725.1z"/><use xlink:href="#B" x="-601.25"/><path d="M725.1 664.97h17.23v17.23H725.1z"/><use xlink:href="#B" x="-601.25" y="-188.97"/><use xlink:href="#B" x="-635.6" y="34.35"/><use xlink:href="#B" x="-652.83" y="17.12"/><use xlink:href="#B" x="-635.6"/><use xlink:href="#B" x="-652.83" y="-17.23"/><use xlink:href="#B" x="-635.6" y="-34.34"/><use xlink:href="#B" x="-652.83" y="-137.51"/><use xlink:href="#B" x="-652.83" y="-171.85"/><use xlink:href="#B" x="-635.6" y="-188.97"/><use xlink:href="#B" x="-669.95" y="-188.97"/><use xlink:href="#B" x="-669.95" y="34.35"/><use xlink:href="#B" x="-669.95"/><use xlink:href="#B" x="-669.95" y="-34.34"/><use xlink:href="#B" x="-669.95" y="-120.27"/><use xlink:href="#B" x="-669.95" y="-154.62"/></g><defs ><path id="B" d="M1343.59 836.82h17.23v17.23h-17.23z"/><path id="C" d="M1171.85 1420.96v34.35h34.35v-34.35h-34.35z"/></defs></svg>